<?xml version="1.0"?><svg fill="#26e07f" xmlns="http://www.w3.org/2000/svg"  viewBox="0 0 24 24" width="48px" height="48px">    <path d="M 12.001953 2.0039062 C 11.220453 2.0036563 10.438703 2.2995781 9.8457031 2.8925781 L 8.5234375 4.2167969 C 8.3284375 4.4117969 8.3284375 4.7288281 8.5234375 4.9238281 L 11.121094 7.5214844 C 11.511094 7.9124844 12.145156 7.9124844 12.535156 7.5214844 L 15.306641 4.7480469 C 15.501641 4.5530469 15.501641 4.2379688 15.306641 4.0429688 L 14.158203 2.8925781 C 13.565203 2.2995781 12.783453 2.0041562 12.001953 2.0039062 z M 17.074219 6.0175781 C 16.946219 6.0175781 16.818203 6.0665625 16.720703 6.1640625 L 13.949219 8.9375 C 13.558219 9.3285 13.558219 9.9615625 13.949219 10.351562 L 14.462891 10.863281 C 14.851891 11.253281 15.482047 11.255187 15.873047 10.867188 L 18.658203 8.1035156 C 18.854203 7.9085156 18.854203 7.5914844 18.658203 7.3964844 L 17.427734 6.1640625 C 17.330234 6.0665625 17.202219 6.0175781 17.074219 6.0175781 z M 6.7558594 6.1914062 C 6.6278594 6.1914062 6.4998438 6.2403906 6.4023438 6.3378906 L 2.8945312 9.8457031 C 2.1875313 10.549703 1.8707813 11.538594 2.0507812 12.558594 C 2.1617813 13.193594 2.5068906 13.766656 2.9628906 14.222656 L 4.0488281 15.308594 C 4.2438281 15.503594 4.5598594 15.503594 4.7558594 15.308594 L 9.7089844 10.351562 C 10.098984 9.9615625 10.098984 9.3285 9.7089844 8.9375 L 7.109375 6.3378906 C 7.011875 6.2403906 6.8838594 6.1914062 6.7558594 6.1914062 z M 20.425781 9.3730469 C 20.298156 9.3729219 20.170266 9.4205781 20.072266 9.5175781 L 17.292969 12.277344 C 16.899969 12.667344 16.898063 13.303312 17.289062 13.695312 L 19.074219 15.482422 C 19.269219 15.677422 19.58625 15.677422 19.78125 15.482422 L 21.109375 14.15625 C 21.680375 13.58225 21.997 12.821484 22 12.021484 C 22.007 11.198484 21.689422 10.426656 21.107422 9.8476562 L 20.779297 9.5195312 C 20.681797 9.4220312 20.553406 9.3731719 20.425781 9.3730469 z M 11.828125 11.474609 C 11.572125 11.474859 11.316094 11.572578 11.121094 11.767578 L 6.1699219 16.722656 C 5.9749219 16.917656 5.9749219 17.234687 6.1699219 17.429688 L 9.78125 21.042969 C 10.23725 21.498969 10.810313 21.842172 11.445312 21.951172 C 12.468312 22.128172 13.459344 21.807469 14.152344 21.105469 L 17.660156 17.599609 C 17.855156 17.404609 17.855156 17.087578 17.660156 16.892578 L 12.535156 11.765625 C 12.340156 11.570625 12.084125 11.474359 11.828125 11.474609 z"/></svg>